<svg xmlns="http://www.w3.org/2000/svg" viewBox="0 0 1440 320"><path fill="#00cba9" fill-opacity="1" d="M0,224L12.6,229.3C25.3,235,51,245,76,261.3C101.1,277,126,299,152,282.7C176.8,267,202,213,227,213.3C252.6,213,278,267,303,245.3C328.4,224,354,128,379,122.7C404.2,117,429,203,455,224C480,245,505,203,531,192C555.8,181,581,203,606,192C631.6,181,657,139,682,106.7C707.4,75,733,53,758,80C783.2,107,808,181,834,224C858.9,267,884,277,909,256C934.7,235,960,181,985,170.7C1010.5,160,1036,192,1061,208C1086.3,224,1112,224,1137,192C1162.1,160,1187,96,1213,69.3C1237.9,43,1263,53,1288,90.7C1313.7,128,1339,192,1364,213.3C1389.5,235,1415,213,1427,202.7L1440,192L1440,320L1427.4,320C1414.7,320,1389,320,1364,320C1338.9,320,1314,320,1288,320C1263.2,320,1238,320,1213,320C1187.4,320,1162,320,1137,320C1111.6,320,1086,320,1061,320C1035.8,320,1011,320,985,320C960,320,935,320,909,320C884.2,320,859,320,834,320C808.4,320,783,320,758,320C732.6,320,707,320,682,320C656.8,320,632,320,606,320C581.1,320,556,320,531,320C505.3,320,480,320,455,320C429.5,320,404,320,379,320C353.7,320,328,320,303,320C277.9,320,253,320,227,320C202.1,320,177,320,152,320C126.3,320,101,320,76,320C50.5,320,25,320,13,320L0,320Z"></path></svg>